<svg width="20" height="20" viewBox="0 0 20 20" fill="none" xmlns="http://www.w3.org/2000/svg">
<path d="M18.9442 8.81914C18.7062 9.09314 18.3612 9.25017 18.0002 9.25017H11.9922C11.3072 9.25017 10.7502 8.69323 10.7502 8.00823V2.00017C10.7502 1.63817 10.9072 1.29423 11.1822 1.05523C11.4532 0.820227 11.8172 0.713136 12.1622 0.762136C15.8172 1.27314 18.7262 4.18219 19.2382 7.83819C19.2872 8.19019 19.1802 8.54814 18.9442 8.81914ZM16.9813 11.6032C16.7503 11.3202 16.4083 11.1572 16.0433 11.1572H10.0922C9.40322 11.1572 8.84222 10.5962 8.84222 9.90716V3.95623C8.84222 3.59223 8.68021 3.25012 8.39721 3.01812C8.12321 2.79412 7.76723 2.70512 7.42523 2.77312C5.27323 3.20612 3.33925 4.51113 2.12225 6.35613C0.891248 8.22113 0.46926 10.4792 0.93426 12.7122C1.58926 15.8562 4.14223 18.4081 7.28723 19.0641C7.88023 19.1881 8.47527 19.2492 9.06427 19.2492C10.6923 19.2492 12.2733 18.7822 13.6423 17.8782C15.4873 16.6602 16.7922 14.7271 17.2252 12.5751C17.2962 12.2321 17.2073 11.8772 16.9813 11.6032Z" fill="#304FFE"/>
</svg>
